<svg id="Layer_1" xmlns="http://www.w3.org/2000/svg" viewBox="0 0 215.938 36"><style>.st0{fill:#F47B20;}</style><path class="st0" d="M79.733 13.935c.026-3.625-3.185-6.116-7.03-6.116H56.578v20.047l6.128-.003v-7.56L67 20.303l5.713 7.565 6.95-.003-6.154-7.896c3.38.054 6.196-2.652 6.223-6.033zM70.14 17.12h-7.46v-6.157h7.595c1.8-.027 3.295 1.443 3.242 3.192-.056 1.727-1.607 3.07-3.378 2.965zM106.55 13.935c.027-3.625-3.183-6.116-7.028-6.116H83.395l.002 20.048 6.127-.003v-7.56l4.294-.003 5.715 7.565 6.95-.003-6.157-7.896c3.38.054 6.198-2.652 6.225-6.033zm-9.593 3.185h-7.46v-6.157h7.594c1.802-.027 3.296 1.443 3.244 3.192-.055 1.727-1.606 3.07-3.377 2.965zM39.346 18.947l11.795-.002v-2.932l-11.75.002.004-5.134h13.674V7.818h-19.85v20.05l19.97-.004v-3.067l-13.842.003zM116.252 18.947l11.793-.002v-2.932l-11.75.002.004-5.134h13.673V7.818H110.12l.003 20.05 19.97-.004v-3.067l-13.84.003zM14.292 23.02L7.982 7.817H0l.002 20.05 3.705-.002V11.44l6.112 16.424 6.62.003 6.098-16.44.005 16.44 6.27-.002-.003-20.047h-8.885zM139.553 7.82h-6.08l-.002 20.047 19.204-.006.002-3.036h-13.123zM161.592 7.815h-6.08V27.86h19.2l.003-3.036h-13.12zM213.168 11.303c0-.78.61-1.392 1.39-1.392s1.38.607 1.38 1.386c0 .786-.605 1.397-1.385 1.397s-1.385-.605-1.385-1.39zm2.532 0c0-.654-.498-1.164-1.146-1.164-.65 0-1.14.503-1.14 1.156 0 .66.5 1.17 1.146 1.17.647 0 1.14-.503 1.14-1.163zm-1.68-.79h.57c.36 0 .568.155.568.466 0 .245-.12.37-.3.43l.33.625h-.317l-.306-.582h-.24v.582h-.305v-1.523zm.55.706c.187 0 .29-.06.29-.223 0-.15-.103-.216-.295-.216h-.24v.44h.246zM194.95 0c-9.94 0-18 8.064-18 18 0 9.947 8.06 18 18 18 9.943 0 17.996-8.054 17.996-18 0-9.936-8.053-18-17.996-18zm10.947 24.06V13.232l-3.615 11.895-4.86 1.453-5.394-14.162v15.765l-7.66 2.285V5.17l11.854 1.852 4.045 11.413 2.988-10.293 5.795.91v14.065l-3.153.943z"/></svg>